<svg
  width="20"
  height="21"
  viewBox="0 0 20 21"
  fill="none"
  xmlns="http://www.w3.org/2000/svg"
>
  <path
    d="M18.6584 5.72505C17.7642 4.19291 16.5513 2.97991 15.0193 2.08578C13.487 1.1916 11.8143 0.744629 9.99984 0.744629C8.18563 0.744629 6.51234 1.19174 4.98042 2.08578C3.44828 2.97986 2.23537 4.19291 1.34115 5.72505C0.447065 7.25715 0 8.93021 0 10.7442C0 12.9232 0.635733 14.8826 1.90752 16.6229C3.17917 18.3634 4.82195 19.5677 6.83572 20.2361C7.07013 20.2796 7.24366 20.249 7.35649 20.1451C7.46936 20.041 7.52573 19.9107 7.52573 19.7546C7.52573 19.7285 7.52349 19.4943 7.51916 19.0515C7.51469 18.6087 7.51259 18.2224 7.51259 17.8929L7.2131 17.9447C7.02216 17.9796 6.78127 17.9945 6.49045 17.9903C6.19976 17.9862 5.89799 17.9558 5.58556 17.8991C5.27298 17.843 4.98225 17.7128 4.71313 17.5088C4.44416 17.3048 4.25321 17.0378 4.14034 16.7081L4.01013 16.4085C3.92335 16.209 3.78671 15.9874 3.60005 15.7445C3.41339 15.5014 3.22463 15.3366 3.03369 15.2498L2.94252 15.1846C2.88178 15.1412 2.82541 15.0889 2.77328 15.0282C2.7212 14.9675 2.68221 14.9067 2.65617 14.8459C2.63008 14.785 2.6517 14.7351 2.72125 14.6959C2.79079 14.6567 2.91648 14.6377 3.09886 14.6377L3.35917 14.6766C3.53279 14.7114 3.74754 14.8153 4.0037 14.9891C4.25973 15.1626 4.4702 15.3883 4.63515 15.6659C4.8349 16.0219 5.07556 16.2932 5.3578 16.4798C5.63983 16.6665 5.92417 16.7597 6.21057 16.7597C6.49697 16.7597 6.74433 16.738 6.95275 16.6948C7.16093 16.6514 7.35626 16.5861 7.53863 16.4994C7.61675 15.9175 7.82946 15.4706 8.17655 15.1581C7.68183 15.1061 7.23705 15.0278 6.84197 14.9237C6.44712 14.8195 6.0391 14.6503 5.61816 14.4157C5.197 14.1814 4.84762 13.8905 4.56993 13.5434C4.2922 13.1962 4.06427 12.7403 3.88645 12.1762C3.70855 11.6119 3.61957 10.961 3.61957 10.2232C3.61957 9.17265 3.96252 8.2787 4.64828 7.54081C4.32704 6.75103 4.35737 5.86565 4.73936 4.88478C4.9911 4.80657 5.36442 4.86526 5.85914 5.0605C6.35395 5.25582 6.71624 5.42315 6.94636 5.56188C7.17648 5.70056 7.36087 5.81809 7.49978 5.9134C8.30721 5.68779 9.14046 5.57497 9.99975 5.57497C10.859 5.57497 11.6925 5.68779 12.4999 5.9134L12.9947 5.60105C13.3331 5.39264 13.7326 5.20165 14.1924 5.02803C14.6525 4.8545 15.0043 4.80671 15.2474 4.88492C15.6379 5.86584 15.6727 6.75116 15.3514 7.54095C16.0371 8.27884 16.3802 9.17301 16.3802 10.2233C16.3802 10.9611 16.2909 11.6141 16.1132 12.1828C15.9354 12.7515 15.7055 13.2069 15.4235 13.5499C15.1411 13.8929 14.7895 14.1816 14.3686 14.4158C13.9475 14.6502 13.5394 14.8194 13.1445 14.9237C12.7495 15.0279 12.3047 15.1063 11.81 15.1583C12.2612 15.5488 12.4869 16.1652 12.4869 17.0071V19.7542C12.4869 19.9103 12.5411 20.0406 12.6498 20.1447C12.7583 20.2486 12.9296 20.2792 13.164 20.2357C15.1781 19.5674 16.8208 18.363 18.0924 16.6226C19.3639 14.8823 19.9999 12.9228 19.9999 10.7438C19.9994 8.93008 19.5521 7.25715 18.6584 5.72505Z"
    fill="white"
  />
</svg>
