<svg
  width="24"
  height="24"
  viewBox="0 0 24 24"
  fill="none"
  xmlns="http://www.w3.org/2000/svg"
>
  <path
    fill-rule="evenodd"
    clip-rule="evenodd"
    d="M17.7727 7.32457C17.8448 7.2526 17.902 7.16715 17.941 7.07308C17.98 6.97902 18.0001 6.87819 18.0002 6.77635C18.0003 6.67451 17.9803 6.57366 17.9413 6.47955C17.9024 6.38544 17.8454 6.29991 17.7734 6.22786C17.7014 6.1558 17.616 6.09863 17.5219 6.0596C17.4279 6.02057 17.327 6.00045 17.2252 6.00039C17.1233 6.00032 17.0225 6.02032 16.9284 6.05923C16.8343 6.09815 16.7487 6.15522 16.6767 6.22718L12 10.9039L7.32466 6.22718C7.17914 6.08166 6.98177 5.99991 6.77597 5.99991C6.57017 5.99991 6.3728 6.08166 6.22728 6.22718C6.08175 6.37271 6 6.57008 6 6.77588C6 6.98168 6.08175 7.17905 6.22728 7.32457L10.904 11.9999L6.22728 16.6752C6.15522 16.7473 6.09806 16.8328 6.05907 16.927C6.02007 17.0211 6 17.122 6 17.2239C6 17.3258 6.02007 17.4267 6.05907 17.5209C6.09806 17.615 6.15522 17.7006 6.22728 17.7726C6.3728 17.9182 6.57017 17.9999 6.77597 17.9999C6.87787 17.9999 6.97877 17.9798 7.07292 17.9408C7.16706 17.9018 7.2526 17.8447 7.32466 17.7726L12 13.0959L16.6767 17.7726C16.8222 17.918 17.0195 17.9996 17.2252 17.9994C17.4309 17.9993 17.6281 17.9175 17.7734 17.772C17.9187 17.6264 18.0003 17.4291 18.0002 17.2235C18.0001 17.0178 17.9182 16.8206 17.7727 16.6752L13.096 11.9999L17.7727 7.32457Z"
    fill="currentColor"
  />
</svg>
