<svg viewBox="0 0 24 24" fill="none" xmlns="http://www.w3.org/2000/svg">
  <path
    d="M11.15 4.35C11.15 3.88059 11.5306 3.5 12 3.5C12.4694 3.5 12.85 3.88059 12.85 4.35V5.2C12.85 5.66941 12.4694 6.05 12 6.05C11.5306 6.05 11.15 5.66941 11.15 5.2V4.35Z"
    fill="#FF7000"
  />
  <path
    d="M16.25 12C16.25 14.3473 14.3473 16.25 12 16.25C9.65275 16.25 7.75 14.3473 7.75 12C7.75 9.65275 9.65275 7.75 12 7.75C14.3473 7.75 16.25 9.65275 16.25 12Z"
    fill="#FF7000"
  />
  <path
    d="M12 17.95C11.5306 17.95 11.15 18.3306 11.15 18.8V19.65C11.15 20.1194 11.5306 20.5 12 20.5C12.4694 20.5 12.85 20.1194 12.85 19.65V18.8C12.85 18.3306 12.4694 17.95 12 17.95Z"
    fill="#FF7000"
  />
  <path
    d="M5.98961 7.19167C5.65758 6.85964 5.65758 6.32154 5.98961 5.98951C6.32154 5.65758 6.85974 5.65758 7.19167 5.98951L7.79265 6.59059C8.12468 6.92252 8.12468 7.46072 7.79265 7.79265C7.46072 8.12457 6.92252 8.12457 6.59059 7.79265L5.98961 7.19167Z"
    fill="#FF7000"
  />
  <path
    d="M16.2073 16.2073C15.8753 16.5392 15.8753 17.0774 16.2073 17.4093L16.8083 18.0104C17.1403 18.3423 17.6785 18.3423 18.0104 18.0104C18.3423 17.6785 18.3423 17.1403 18.0104 16.8083L17.4093 16.2073C17.0774 15.8753 16.5392 15.8753 16.2073 16.2073Z"
    fill="#FF7000"
  />
  <path
    d="M4.35 12.85C3.88059 12.85 3.5 12.4694 3.5 12C3.5 11.5306 3.88059 11.15 4.35 11.15H5.2C5.66941 11.15 6.05 11.5306 6.05 12C6.05 12.4694 5.66941 12.85 5.2 12.85H4.35Z"
    fill="#FF7000"
  />
  <path
    d="M17.95 12C17.95 12.4694 18.3306 12.85 18.8 12.85H19.65C20.1194 12.85 20.5 12.4694 20.5 12C20.5 11.5306 20.1194 11.15 19.65 11.15H18.8C18.3306 11.15 17.95 11.5306 17.95 12Z"
    fill="#FF7000"
  />
  <path
    d="M6.68605 17.5684C6.32652 17.8701 5.79029 17.8232 5.48856 17.4637C5.18682 17.104 5.23372 16.5679 5.59335 16.2661L6.24445 15.7198C6.60408 15.4181 7.1402 15.465 7.44204 15.8245C7.74377 16.1841 7.69688 16.7202 7.33724 17.0221L6.68605 17.5684Z"
    fill="#FF7000"
  />
  <path
    d="M16.558 8.17531C16.8597 8.53494 17.3958 8.58184 17.7555 8.28011L18.4065 7.73371C18.7662 7.43198 18.8131 6.89585 18.5113 6.53622C18.2096 6.17659 17.6735 6.12969 17.3138 6.43152L16.6627 6.97782C16.3031 7.27955 16.2562 7.81578 16.558 8.17531Z"
    fill="#FF7000"
  />
</svg>
